<svg id="visual" viewBox="0 0 1980 600" width="1980" height="600" xmlns="http://www.w3.org/2000/svg" xmlns:xlink="http://www.w3.org/1999/xlink" version="1.1"><path d="M0 306L27.5 288C55 270 110 234 165 210.3C220 186.7 275 175.3 330 177.3C385 179.3 440 194.7 495 198.3C550 202 605 194 660 203.7C715 213.3 770 240.7 825 248.5C880 256.3 935 244.7 990 244C1045 243.3 1100 253.7 1155 239.3C1210 225 1265 186 1320 185.3C1375 184.7 1430 222.3 1485 245.3C1540 268.3 1595 276.7 1650 277.7C1705 278.7 1760 272.3 1815 251.3C1870 230.3 1925 194.7 1952.5 176.8L1980 159L1980 601L1952.5 601C1925 601 1870 601 1815 601C1760 601 1705 601 1650 601C1595 601 1540 601 1485 601C1430 601 1375 601 1320 601C1265 601 1210 601 1155 601C1100 601 1045 601 990 601C935 601 880 601 825 601C770 601 715 601 660 601C605 601 550 601 495 601C440 601 385 601 330 601C275 601 220 601 165 601C110 601 55 601 27.5 601L0 601Z" fill="#43591f"></path><path d="M0 175L27.5 191.3C55 207.7 110 240.3 165 256.3C220 272.3 275 271.7 330 284.5C385 297.3 440 323.7 495 307.7C550 291.7 605 233.3 660 209.2C715 185 770 195 825 202C880 209 935 213 990 235.3C1045 257.7 1100 298.3 1155 293.8C1210 289.3 1265 239.7 1320 227.3C1375 215 1430 240 1485 241.7C1540 243.3 1595 221.7 1650 213.3C1705 205 1760 210 1815 233.3C1870 256.7 1925 298.3 1952.5 319.2L1980 340L1980 601L1952.5 601C1925 601 1870 601 1815 601C1760 601 1705 601 1650 601C1595 601 1540 601 1485 601C1430 601 1375 601 1320 601C1265 601 1210 601 1155 601C1100 601 1045 601 990 601C935 601 880 601 825 601C770 601 715 601 660 601C605 601 550 601 495 601C440 601 385 601 330 601C275 601 220 601 165 601C110 601 55 601 27.5 601L0 601Z" fill="#514e12"></path><path d="M0 314L27.5 324.7C55 335.3 110 356.7 165 362.8C220 369 275 360 330 340.2C385 320.3 440 289.7 495 278C550 266.3 605 273.7 660 278.3C715 283 770 285 825 291.2C880 297.3 935 307.7 990 321.2C1045 334.7 1100 351.3 1155 348.5C1210 345.7 1265 323.3 1320 321.5C1375 319.7 1430 338.3 1485 330.3C1540 322.3 1595 287.7 1650 268.8C1705 250 1760 247 1815 265.8C1870 284.7 1925 325.3 1952.5 345.7L1980 366L1980 601L1952.5 601C1925 601 1870 601 1815 601C1760 601 1705 601 1650 601C1595 601 1540 601 1485 601C1430 601 1375 601 1320 601C1265 601 1210 601 1155 601C1100 601 1045 601 990 601C935 601 880 601 825 601C770 601 715 601 660 601C605 601 550 601 495 601C440 601 385 601 330 601C275 601 220 601 165 601C110 601 55 601 27.5 601L0 601Z" fill="#5b430f"></path><path d="M0 378L27.5 380.3C55 382.7 110 387.3 165 379.7C220 372 275 352 330 349.2C385 346.3 440 360.7 495 357.7C550 354.7 605 334.3 660 327.7C715 321 770 328 825 330.7C880 333.3 935 331.7 990 326.7C1045 321.7 1100 313.3 1155 307.2C1210 301 1265 297 1320 304.5C1375 312 1430 331 1485 328.7C1540 326.3 1595 302.7 1650 306.8C1705 311 1760 343 1815 351.7C1870 360.3 1925 345.7 1952.5 338.3L1980 331L1980 601L1952.5 601C1925 601 1870 601 1815 601C1760 601 1705 601 1650 601C1595 601 1540 601 1485 601C1430 601 1375 601 1320 601C1265 601 1210 601 1155 601C1100 601 1045 601 990 601C935 601 880 601 825 601C770 601 715 601 660 601C605 601 550 601 495 601C440 601 385 601 330 601C275 601 220 601 165 601C110 601 55 601 27.5 601L0 601Z" fill="#613714"></path><path d="M0 378L27.5 369.2C55 360.3 110 342.7 165 343.2C220 343.7 275 362.3 330 382.7C385 403 440 425 495 434.5C550 444 605 441 660 427C715 413 770 388 825 370C880 352 935 341 990 335.2C1045 329.3 1100 328.7 1155 331.3C1210 334 1265 340 1320 352.3C1375 364.7 1430 383.3 1485 384.3C1540 385.3 1595 368.7 1650 375.2C1705 381.7 1760 411.3 1815 412C1870 412.7 1925 384.3 1952.5 370.2L1980 356L1980 601L1952.5 601C1925 601 1870 601 1815 601C1760 601 1705 601 1650 601C1595 601 1540 601 1485 601C1430 601 1375 601 1320 601C1265 601 1210 601 1155 601C1100 601 1045 601 990 601C935 601 880 601 825 601C770 601 715 601 660 601C605 601 550 601 495 601C440 601 385 601 330 601C275 601 220 601 165 601C110 601 55 601 27.5 601L0 601Z" fill="#632b1d"></path><path d="M0 470L27.5 463C55 456 110 442 165 438.3C220 434.7 275 441.3 330 437.7C385 434 440 420 495 413.8C550 407.7 605 409.3 660 406.2C715 403 770 395 825 405.2C880 415.3 935 443.7 990 442C1045 440.3 1100 408.7 1155 392.8C1210 377 1265 377 1320 387.3C1375 397.7 1430 418.3 1485 416.8C1540 415.3 1595 391.7 1650 396C1705 400.3 1760 432.7 1815 440C1870 447.3 1925 429.7 1952.5 420.8L1980 412L1980 601L1952.5 601C1925 601 1870 601 1815 601C1760 601 1705 601 1650 601C1595 601 1540 601 1485 601C1430 601 1375 601 1320 601C1265 601 1210 601 1155 601C1100 601 1045 601 990 601C935 601 880 601 825 601C770 601 715 601 660 601C605 601 550 601 495 601C440 601 385 601 330 601C275 601 220 601 165 601C110 601 55 601 27.5 601L0 601Z" fill="#602127"></path><path d="M0 452L27.5 461.8C55 471.7 110 491.3 165 500.3C220 509.3 275 507.7 330 495.3C385 483 440 460 495 460.2C550 460.3 605 483.7 660 481.8C715 480 770 453 825 450.5C880 448 935 470 990 469.8C1045 469.7 1100 447.3 1155 445C1210 442.7 1265 460.3 1320 459.3C1375 458.3 1430 438.7 1485 432.5C1540 426.3 1595 433.7 1650 443.7C1705 453.7 1760 466.3 1815 467.8C1870 469.3 1925 459.7 1952.5 454.8L1980 450L1980 601L1952.5 601C1925 601 1870 601 1815 601C1760 601 1705 601 1650 601C1595 601 1540 601 1485 601C1430 601 1375 601 1320 601C1265 601 1210 601 1155 601C1100 601 1045 601 990 601C935 601 880 601 825 601C770 601 715 601 660 601C605 601 550 601 495 601C440 601 385 601 330 601C275 601 220 601 165 601C110 601 55 601 27.5 601L0 601Z" fill="#581b32"></path><path d="M0 470L27.5 475.5C55 481 110 492 165 498.7C220 505.3 275 507.7 330 507.3C385 507 440 504 495 507C550 510 605 519 660 518.2C715 517.3 770 506.7 825 505C880 503.3 935 510.7 990 512.2C1045 513.7 1100 509.3 1155 508.8C1210 508.3 1265 511.7 1320 512.8C1375 514 1430 513 1485 507.2C1540 501.3 1595 490.7 1650 490C1705 489.3 1760 498.7 1815 500.5C1870 502.3 1925 496.7 1952.5 493.8L1980 491L1980 601L1952.5 601C1925 601 1870 601 1815 601C1760 601 1705 601 1650 601C1595 601 1540 601 1485 601C1430 601 1375 601 1320 601C1265 601 1210 601 1155 601C1100 601 1045 601 990 601C935 601 880 601 825 601C770 601 715 601 660 601C605 601 550 601 495 601C440 601 385 601 330 601C275 601 220 601 165 601C110 601 55 601 27.5 601L0 601Z" fill="#4b1a3b"></path><path d="M0 560L27.5 558.3C55 556.7 110 553.3 165 549.7C220 546 275 542 330 542.2C385 542.3 440 546.7 495 546.7C550 546.7 605 542.3 660 537.7C715 533 770 528 825 534C880 540 935 557 990 558.3C1045 559.7 1100 545.3 1155 535.3C1210 525.3 1265 519.7 1320 522C1375 524.3 1430 534.7 1485 536.5C1540 538.3 1595 531.7 1650 533.3C1705 535 1760 545 1815 547.2C1870 549.3 1925 543.7 1952.5 540.8L1980 538L1980 601L1952.5 601C1925 601 1870 601 1815 601C1760 601 1705 601 1650 601C1595 601 1540 601 1485 601C1430 601 1375 601 1320 601C1265 601 1210 601 1155 601C1100 601 1045 601 990 601C935 601 880 601 825 601C770 601 715 601 660 601C605 601 550 601 495 601C440 601 385 601 330 601C275 601 220 601 165 601C110 601 55 601 27.5 601L0 601Z" fill="#391b41"></path></svg>