<svg id="visual" viewBox="0 0 1920 800" width="1920" height="800" xmlns="http://www.w3.org/2000/svg" xmlns:xlink="http://www.w3.org/1999/xlink" version="1.1"><path d="M0 204L16 212.7C32 221.3 64 238.7 96 234.5C128 230.3 160 204.7 192 192.5C224 180.3 256 181.7 288 184C320 186.3 352 189.7 384 204.8C416 220 448 247 480 262.8C512 278.7 544 283.3 576 276C608 268.7 640 249.3 672 253.5C704 257.7 736 285.3 768 271.7C800 258 832 203 864 203.2C896 203.3 928 258.7 960 263C992 267.3 1024 220.7 1056 195.3C1088 170 1120 166 1152 182.3C1184 198.7 1216 235.3 1248 236.5C1280 237.7 1312 203.3 1344 195.7C1376 188 1408 207 1440 215.5C1472 224 1504 222 1536 212C1568 202 1600 184 1632 180C1664 176 1696 186 1728 188.8C1760 191.7 1792 187.3 1824 204.7C1856 222 1888 261 1904 280.5L1920 300L1920 801L1904 801C1888 801 1856 801 1824 801C1792 801 1760 801 1728 801C1696 801 1664 801 1632 801C1600 801 1568 801 1536 801C1504 801 1472 801 1440 801C1408 801 1376 801 1344 801C1312 801 1280 801 1248 801C1216 801 1184 801 1152 801C1120 801 1088 801 1056 801C1024 801 992 801 960 801C928 801 896 801 864 801C832 801 800 801 768 801C736 801 704 801 672 801C640 801 608 801 576 801C544 801 512 801 480 801C448 801 416 801 384 801C352 801 320 801 288 801C256 801 224 801 192 801C160 801 128 801 96 801C64 801 32 801 16 801L0 801Z" fill="#f0f8ff"></path><path d="M0 393L16 371.2C32 349.3 64 305.7 96 304.7C128 303.7 160 345.3 192 349.2C224 353 256 319 288 294.8C320 270.7 352 256.3 384 270C416 283.7 448 325.3 480 326.8C512 328.3 544 289.7 576 275.3C608 261 640 271 672 286C704 301 736 321 768 340.8C800 360.7 832 380.3 864 374.5C896 368.7 928 337.3 960 336.3C992 335.3 1024 364.7 1056 354.2C1088 343.7 1120 293.3 1152 271C1184 248.7 1216 254.3 1248 269.8C1280 285.3 1312 310.7 1344 325C1376 339.3 1408 342.7 1440 348.7C1472 354.7 1504 363.3 1536 359.8C1568 356.3 1600 340.7 1632 325.7C1664 310.7 1696 296.3 1728 306C1760 315.7 1792 349.3 1824 366.5C1856 383.7 1888 384.3 1904 384.7L1920 385L1920 801L1904 801C1888 801 1856 801 1824 801C1792 801 1760 801 1728 801C1696 801 1664 801 1632 801C1600 801 1568 801 1536 801C1504 801 1472 801 1440 801C1408 801 1376 801 1344 801C1312 801 1280 801 1248 801C1216 801 1184 801 1152 801C1120 801 1088 801 1056 801C1024 801 992 801 960 801C928 801 896 801 864 801C832 801 800 801 768 801C736 801 704 801 672 801C640 801 608 801 576 801C544 801 512 801 480 801C448 801 416 801 384 801C352 801 320 801 288 801C256 801 224 801 192 801C160 801 128 801 96 801C64 801 32 801 16 801L0 801Z" fill="#cee4fb"></path><path d="M0 375L16 387.5C32 400 64 425 96 427C128 429 160 408 192 398.7C224 389.3 256 391.7 288 384.7C320 377.7 352 361.3 384 360C416 358.7 448 372.3 480 379.5C512 386.7 544 387.3 576 400.8C608 414.3 640 440.7 672 447.5C704 454.3 736 441.7 768 427.5C800 413.3 832 397.7 864 394C896 390.3 928 398.7 960 392.3C992 386 1024 365 1056 362.7C1088 360.3 1120 376.7 1152 396.7C1184 416.7 1216 440.3 1248 450.7C1280 461 1312 458 1344 440.8C1376 423.7 1408 392.3 1440 396.7C1472 401 1504 441 1536 449.8C1568 458.7 1600 436.3 1632 431.8C1664 427.3 1696 440.7 1728 435.2C1760 429.7 1792 405.3 1824 395.3C1856 385.3 1888 389.7 1904 391.8L1920 394L1920 801L1904 801C1888 801 1856 801 1824 801C1792 801 1760 801 1728 801C1696 801 1664 801 1632 801C1600 801 1568 801 1536 801C1504 801 1472 801 1440 801C1408 801 1376 801 1344 801C1312 801 1280 801 1248 801C1216 801 1184 801 1152 801C1120 801 1088 801 1056 801C1024 801 992 801 960 801C928 801 896 801 864 801C832 801 800 801 768 801C736 801 704 801 672 801C640 801 608 801 576 801C544 801 512 801 480 801C448 801 416 801 384 801C352 801 320 801 288 801C256 801 224 801 192 801C160 801 128 801 96 801C64 801 32 801 16 801L0 801Z" fill="#afd0f7"></path><path d="M0 487L16 496.2C32 505.3 64 523.7 96 519.8C128 516 160 490 192 485.7C224 481.3 256 498.7 288 509.2C320 519.7 352 523.3 384 516.3C416 509.3 448 491.7 480 483.5C512 475.3 544 476.7 576 472.7C608 468.7 640 459.3 672 460.2C704 461 736 472 768 485.2C800 498.3 832 513.7 864 518.5C896 523.3 928 517.7 960 522.8C992 528 1024 544 1056 547.8C1088 551.7 1120 543.3 1152 540C1184 536.7 1216 538.3 1248 527.3C1280 516.3 1312 492.7 1344 480C1376 467.3 1408 465.7 1440 472C1472 478.3 1504 492.7 1536 501.2C1568 509.7 1600 512.3 1632 517C1664 521.7 1696 528.3 1728 526.2C1760 524 1792 513 1824 497C1856 481 1888 460 1904 449.5L1920 439L1920 801L1904 801C1888 801 1856 801 1824 801C1792 801 1760 801 1728 801C1696 801 1664 801 1632 801C1600 801 1568 801 1536 801C1504 801 1472 801 1440 801C1408 801 1376 801 1344 801C1312 801 1280 801 1248 801C1216 801 1184 801 1152 801C1120 801 1088 801 1056 801C1024 801 992 801 960 801C928 801 896 801 864 801C832 801 800 801 768 801C736 801 704 801 672 801C640 801 608 801 576 801C544 801 512 801 480 801C448 801 416 801 384 801C352 801 320 801 288 801C256 801 224 801 192 801C160 801 128 801 96 801C64 801 32 801 16 801L0 801Z" fill="#92bbf3"></path><path d="M0 580L16 577C32 574 64 568 96 571.2C128 574.3 160 586.7 192 592C224 597.3 256 595.7 288 600.5C320 605.3 352 616.7 384 618.2C416 619.7 448 611.3 480 605C512 598.7 544 594.3 576 589.5C608 584.7 640 579.3 672 579.7C704 580 736 586 768 583.5C800 581 832 570 864 562.7C896 555.3 928 551.7 960 561C992 570.3 1024 592.7 1056 594C1088 595.3 1120 575.7 1152 572.5C1184 569.3 1216 582.7 1248 597.2C1280 611.7 1312 627.3 1344 634.5C1376 641.7 1408 640.3 1440 633.8C1472 627.3 1504 615.7 1536 605.3C1568 595 1600 586 1632 575.7C1664 565.3 1696 553.7 1728 547.8C1760 542 1792 542 1824 544.2C1856 546.3 1888 550.7 1904 552.8L1920 555L1920 801L1904 801C1888 801 1856 801 1824 801C1792 801 1760 801 1728 801C1696 801 1664 801 1632 801C1600 801 1568 801 1536 801C1504 801 1472 801 1440 801C1408 801 1376 801 1344 801C1312 801 1280 801 1248 801C1216 801 1184 801 1152 801C1120 801 1088 801 1056 801C1024 801 992 801 960 801C928 801 896 801 864 801C832 801 800 801 768 801C736 801 704 801 672 801C640 801 608 801 576 801C544 801 512 801 480 801C448 801 416 801 384 801C352 801 320 801 288 801C256 801 224 801 192 801C160 801 128 801 96 801C64 801 32 801 16 801L0 801Z" fill="#78a6ee"></path><path d="M0 655L16 667.5C32 680 64 705 96 709.2C128 713.3 160 696.7 192 685.2C224 673.7 256 667.3 288 663.3C320 659.3 352 657.7 384 661.3C416 665 448 674 480 673.3C512 672.7 544 662.3 576 665.2C608 668 640 684 672 682C704 680 736 660 768 661.2C800 662.3 832 684.7 864 685.8C896 687 928 667 960 657.3C992 647.7 1024 648.3 1056 651.8C1088 655.3 1120 661.7 1152 663.2C1184 664.7 1216 661.3 1248 662.5C1280 663.7 1312 669.3 1344 669.8C1376 670.3 1408 665.7 1440 662.7C1472 659.7 1504 658.3 1536 655.8C1568 653.3 1600 649.7 1632 652C1664 654.3 1696 662.7 1728 667.3C1760 672 1792 673 1824 680.3C1856 687.7 1888 701.3 1904 708.2L1920 715L1920 801L1904 801C1888 801 1856 801 1824 801C1792 801 1760 801 1728 801C1696 801 1664 801 1632 801C1600 801 1568 801 1536 801C1504 801 1472 801 1440 801C1408 801 1376 801 1344 801C1312 801 1280 801 1248 801C1216 801 1184 801 1152 801C1120 801 1088 801 1056 801C1024 801 992 801 960 801C928 801 896 801 864 801C832 801 800 801 768 801C736 801 704 801 672 801C640 801 608 801 576 801C544 801 512 801 480 801C448 801 416 801 384 801C352 801 320 801 288 801C256 801 224 801 192 801C160 801 128 801 96 801C64 801 32 801 16 801L0 801Z" fill="#6190e8"></path></svg>