<svg id="visual" viewBox="0 0 1980 600" width="1980" height="600" xmlns="http://www.w3.org/2000/svg" xmlns:xlink="http://www.w3.org/1999/xlink" version="1.1"><path d="M0 127L82.5 137.2C165 147.3 330 167.7 495 202.8C660 238 825 288 990 277.5C1155 267 1320 196 1485 160C1650 124 1815 123 1897.5 122.5L1980 122L1980 601L1897.5 601C1815 601 1650 601 1485 601C1320 601 1155 601 990 601C825 601 660 601 495 601C330 601 165 601 82.5 601L0 601Z" fill="#b3c6e9"></path><path d="M0 445L82.5 428.7C165 412.3 330 379.7 495 356.8C660 334 825 321 990 305.3C1155 289.7 1320 271.3 1485 258C1650 244.7 1815 236.3 1897.5 232.2L1980 228L1980 601L1897.5 601C1815 601 1650 601 1485 601C1320 601 1155 601 990 601C825 601 660 601 495 601C330 601 165 601 82.5 601L0 601Z" fill="#8695b6"></path><path d="M0 414L82.5 426.3C165 438.7 330 463.3 495 468.2C660 473 825 458 990 445.2C1155 432.3 1320 421.7 1485 397.3C1650 373 1815 335 1897.5 316L1980 297L1980 601L1897.5 601C1815 601 1650 601 1485 601C1320 601 1155 601 990 601C825 601 660 601 495 601C330 601 165 601 82.5 601L0 601Z" fill="#5c6685"></path><path d="M0 506L82.5 491.7C165 477.3 330 448.7 495 457C660 465.3 825 510.7 990 528.2C1155 545.7 1320 535.3 1485 514.5C1650 493.7 1815 462.3 1897.5 446.7L1980 431L1980 601L1897.5 601C1815 601 1650 601 1485 601C1320 601 1155 601 990 601C825 601 660 601 495 601C330 601 165 601 82.5 601L0 601Z" fill="#353b56"></path></svg>