<svg id="visual" viewBox="0 0 1980 800" width="1980" height="800" xmlns="http://www.w3.org/2000/svg" xmlns:xlink="http://www.w3.org/1999/xlink" version="1.1"><path d="M0 221L41.3 228C82.7 235 165.3 249 247.8 256C330.3 263 412.7 263 495.2 265.5C577.7 268 660.3 273 742.8 285.7C825.3 298.3 907.7 318.7 990.2 327.2C1072.7 335.7 1155.3 332.3 1237.8 335C1320.3 337.7 1402.7 346.3 1485.2 366.5C1567.7 386.7 1650.3 418.3 1732.8 399.5C1815.3 380.7 1897.7 311.3 1938.8 276.7L1980 242L1980 801L1938.8 801C1897.7 801 1815.3 801 1732.8 801C1650.3 801 1567.7 801 1485.2 801C1402.7 801 1320.3 801 1237.8 801C1155.3 801 1072.7 801 990.2 801C907.7 801 825.3 801 742.8 801C660.3 801 577.7 801 495.2 801C412.7 801 330.3 801 247.8 801C165.3 801 82.7 801 41.3 801L0 801Z" fill="#cbd0d8"></path><path d="M0 494L41.3 477C82.7 460 165.3 426 247.8 399.2C330.3 372.3 412.7 352.7 495.2 343.2C577.7 333.7 660.3 334.3 742.8 350.7C825.3 367 907.7 399 990.2 431.2C1072.7 463.3 1155.3 495.7 1237.8 507.5C1320.3 519.3 1402.7 510.7 1485.2 493C1567.7 475.3 1650.3 448.7 1732.8 451.7C1815.3 454.7 1897.7 487.3 1938.8 503.7L1980 520L1980 801L1938.8 801C1897.7 801 1815.3 801 1732.8 801C1650.3 801 1567.7 801 1485.2 801C1402.7 801 1320.3 801 1237.8 801C1155.3 801 1072.7 801 990.2 801C907.7 801 825.3 801 742.8 801C660.3 801 577.7 801 495.2 801C412.7 801 330.3 801 247.8 801C165.3 801 82.7 801 41.3 801L0 801Z" fill="#9ca2ab"></path><path d="M0 548L41.3 537.7C82.7 527.3 165.3 506.7 247.8 512.2C330.3 517.7 412.7 549.3 495.2 567.8C577.7 586.3 660.3 591.7 742.8 589.8C825.3 588 907.7 579 990.2 567.7C1072.7 556.3 1155.3 542.7 1237.8 544.3C1320.3 546 1402.7 563 1485.2 550.7C1567.7 538.3 1650.3 496.7 1732.8 490.3C1815.3 484 1897.7 513 1938.8 527.5L1980 542L1980 801L1938.8 801C1897.7 801 1815.3 801 1732.8 801C1650.3 801 1567.7 801 1485.2 801C1402.7 801 1320.3 801 1237.8 801C1155.3 801 1072.7 801 990.2 801C907.7 801 825.3 801 742.8 801C660.3 801 577.7 801 495.2 801C412.7 801 330.3 801 247.8 801C165.3 801 82.7 801 41.3 801L0 801Z" fill="#707680"></path><path d="M0 611L41.3 605.2C82.7 599.3 165.3 587.7 247.8 585C330.3 582.3 412.7 588.7 495.2 600.8C577.7 613 660.3 631 742.8 634C825.3 637 907.7 625 990.2 620.7C1072.7 616.3 1155.3 619.7 1237.8 637.2C1320.3 654.7 1402.7 686.3 1485.2 700.2C1567.7 714 1650.3 710 1732.8 700.7C1815.3 691.3 1897.7 676.7 1938.8 669.3L1980 662L1980 801L1938.8 801C1897.7 801 1815.3 801 1732.8 801C1650.3 801 1567.7 801 1485.2 801C1402.7 801 1320.3 801 1237.8 801C1155.3 801 1072.7 801 990.2 801C907.7 801 825.3 801 742.8 801C660.3 801 577.7 801 495.2 801C412.7 801 330.3 801 247.8 801C165.3 801 82.7 801 41.3 801L0 801Z" fill="#474d57"></path></svg>