<svg id="visual" viewBox="0 0 1980 800" width="1980" height="800" xmlns="http://www.w3.org/2000/svg" xmlns:xlink="http://www.w3.org/1999/xlink" version="1.1"><path d="M0 327L36.7 301.2C73.3 275.3 146.7 223.7 220 190C293.3 156.3 366.7 140.7 440 171.8C513.3 203 586.7 281 660 313.5C733.3 346 806.7 333 880 305.3C953.3 277.7 1026.7 235.3 1100 254C1173.3 272.7 1246.7 352.3 1320 395C1393.3 437.7 1466.7 443.3 1540 399C1613.3 354.7 1686.7 260.3 1760 205.2C1833.3 150 1906.7 134 1943.3 126L1980 118L1980 801L1943.3 801C1906.7 801 1833.3 801 1760 801C1686.7 801 1613.3 801 1540 801C1466.7 801 1393.3 801 1320 801C1246.7 801 1173.3 801 1100 801C1026.7 801 953.3 801 880 801C806.7 801 733.3 801 660 801C586.7 801 513.3 801 440 801C366.7 801 293.3 801 220 801C146.7 801 73.3 801 36.7 801L0 801Z" fill="#ffffff"></path><path d="M0 279L36.7 289.5C73.3 300 146.7 321 220 367.7C293.3 414.3 366.7 486.7 440 501C513.3 515.3 586.7 471.7 660 459.3C733.3 447 806.7 466 880 486.8C953.3 507.7 1026.7 530.3 1100 505.5C1173.3 480.7 1246.7 408.3 1320 374.3C1393.3 340.3 1466.7 344.7 1540 370.8C1613.3 397 1686.7 445 1760 470.3C1833.3 495.7 1906.7 498.3 1943.3 499.7L1980 501L1980 801L1943.3 801C1906.7 801 1833.3 801 1760 801C1686.7 801 1613.3 801 1540 801C1466.7 801 1393.3 801 1320 801C1246.7 801 1173.3 801 1100 801C1026.7 801 953.3 801 880 801C806.7 801 733.3 801 660 801C586.7 801 513.3 801 440 801C366.7 801 293.3 801 220 801C146.7 801 73.3 801 36.7 801L0 801Z" fill="#c8cbd2"></path><path d="M0 481L36.7 482.7C73.3 484.3 146.7 487.7 220 464.7C293.3 441.7 366.7 392.3 440 386.2C513.3 380 586.7 417 660 427C733.3 437 806.7 420 880 400.8C953.3 381.7 1026.7 360.3 1100 397.8C1173.3 435.3 1246.7 531.7 1320 568.3C1393.3 605 1466.7 582 1540 544.7C1613.3 507.3 1686.7 455.7 1760 471.8C1833.3 488 1906.7 572 1943.3 614L1980 656L1980 801L1943.3 801C1906.7 801 1833.3 801 1760 801C1686.7 801 1613.3 801 1540 801C1466.7 801 1393.3 801 1320 801C1246.7 801 1173.3 801 1100 801C1026.7 801 953.3 801 880 801C806.7 801 733.3 801 660 801C586.7 801 513.3 801 440 801C366.7 801 293.3 801 220 801C146.7 801 73.3 801 36.7 801L0 801Z" fill="#949aa7"></path><path d="M0 505L36.7 510C73.3 515 146.7 525 220 529.3C293.3 533.7 366.7 532.3 440 552C513.3 571.7 586.7 612.3 660 628.7C733.3 645 806.7 637 880 629.5C953.3 622 1026.7 615 1100 628.2C1173.3 641.3 1246.7 674.7 1320 674.7C1393.3 674.7 1466.7 641.3 1540 630.2C1613.3 619 1686.7 630 1760 623.8C1833.3 617.7 1906.7 594.3 1943.3 582.7L1980 571L1980 801L1943.3 801C1906.7 801 1833.3 801 1760 801C1686.7 801 1613.3 801 1540 801C1466.7 801 1393.3 801 1320 801C1246.7 801 1173.3 801 1100 801C1026.7 801 953.3 801 880 801C806.7 801 733.3 801 660 801C586.7 801 513.3 801 440 801C366.7 801 293.3 801 220 801C146.7 801 73.3 801 36.7 801L0 801Z" fill="#626c7e"></path><path d="M0 627L36.7 626.3C73.3 625.7 146.7 624.3 220 639.7C293.3 655 366.7 687 440 681.3C513.3 675.7 586.7 632.3 660 636.3C733.3 640.3 806.7 691.7 880 699C953.3 706.3 1026.7 669.7 1100 643.3C1173.3 617 1246.7 601 1320 601.2C1393.3 601.3 1466.7 617.7 1540 626.8C1613.3 636 1686.7 638 1760 630.7C1833.3 623.3 1906.7 606.7 1943.3 598.3L1980 590L1980 801L1943.3 801C1906.7 801 1833.3 801 1760 801C1686.7 801 1613.3 801 1540 801C1466.7 801 1393.3 801 1320 801C1246.7 801 1173.3 801 1100 801C1026.7 801 953.3 801 880 801C806.7 801 733.3 801 660 801C586.7 801 513.3 801 440 801C366.7 801 293.3 801 220 801C146.7 801 73.3 801 36.7 801L0 801Z" fill="#324157"></path></svg>