<svg id="visual" viewBox="0 0 900 600" width="900" height="600" xmlns="http://www.w3.org/2000/svg" xmlns:xlink="http://www.w3.org/1999/xlink" version="1.1"><path d="M773 600L710 600L710 545L791 545L791 491L791 491L791 436L809 436L809 382L800 382L800 327L845 327L845 273L782 273L782 218L800 218L800 164L800 164L800 109L737 109L737 55L800 55L800 0L900 0L900 55L900 55L900 109L900 109L900 164L900 164L900 218L900 218L900 273L900 273L900 327L900 327L900 382L900 382L900 436L900 436L900 491L900 491L900 545L900 545L900 600L900 600Z" fill="#5a4fcf"></path><path d="M584 600L521 600L521 545L530 545L530 491L404 491L404 436L593 436L593 382L638 382L638 327L629 327L629 273L440 273L440 218L476 218L476 164L467 164L467 109L620 109L620 55L350 55L350 0L801 0L801 55L738 55L738 109L801 109L801 164L801 164L801 218L783 218L783 273L846 273L846 327L801 327L801 382L810 382L810 436L792 436L792 491L792 491L792 545L711 545L711 600L774 600Z" fill="#5761d8"></path><path d="M512 600L467 600L467 545L413 545L413 491L341 491L341 436L485 436L485 382L566 382L566 327L476 327L476 273L368 273L368 218L341 218L341 164L341 164L341 109L494 109L494 55L260 55L260 0L351 0L351 55L621 55L621 109L468 109L468 164L477 164L477 218L441 218L441 273L630 273L630 327L639 327L639 382L594 382L594 436L405 436L405 491L531 491L531 545L522 545L522 600L585 600Z" fill="#5671df"></path><path d="M179 600L116 600L116 545L125 545L125 491L197 491L197 436L206 436L206 382L260 382L260 327L161 327L161 273L98 273L98 218L125 218L125 164L161 164L161 109L179 109L179 55L98 55L98 0L261 0L261 55L495 55L495 109L342 109L342 164L342 164L342 218L369 218L369 273L477 273L477 327L567 327L567 382L486 382L486 436L342 436L342 491L414 491L414 545L468 545L468 600L513 600Z" fill="#5981e4"></path><path d="M0 600L0 600L0 545L0 545L0 491L0 491L0 436L0 436L0 382L0 382L0 327L0 327L0 273L0 273L0 218L0 218L0 164L0 164L0 109L0 109L0 55L0 55L0 0L99 0L99 55L180 55L180 109L162 109L162 164L126 164L126 218L99 218L99 273L162 273L162 327L261 327L261 382L207 382L207 436L198 436L198 491L126 491L126 545L117 545L117 600L180 600Z" fill="#6190e8"></path></svg>