<svg id="visual" viewBox="0 0 900 600" width="900" height="600" xmlns="http://www.w3.org/2000/svg" xmlns:xlink="http://www.w3.org/1999/xlink" version="1.1"><rect x="0" y="0" width="900" height="600" fill="#6190E8"></rect><path d="M0 378L13.7 386.3C27.3 394.7 54.7 411.3 82 411.7C109.3 412 136.7 396 163.8 409.3C191 422.7 218 465.3 245.2 477.5C272.3 489.7 299.7 471.3 327 472.2C354.3 473 381.7 493 409 487.3C436.3 481.7 463.7 450.3 491 428.7C518.3 407 545.7 395 573 407C600.3 419 627.7 455 654.8 467.7C682 480.3 709 469.7 736.2 454.8C763.3 440 790.7 421 818 410.2C845.3 399.3 872.7 396.7 886.3 395.3L900 394L900 601L886.3 601C872.7 601 845.3 601 818 601C790.7 601 763.3 601 736.2 601C709 601 682 601 654.8 601C627.7 601 600.3 601 573 601C545.7 601 518.3 601 491 601C463.7 601 436.3 601 409 601C381.7 601 354.3 601 327 601C299.7 601 272.3 601 245.2 601C218 601 191 601 163.8 601C136.7 601 109.3 601 82 601C54.7 601 27.3 601 13.7 601L0 601Z" fill="#27445C" stroke-linecap="round" stroke-linejoin="miter"></path></svg>