<svg id="visual" viewBox="0 0 900 600" width="900" height="600" xmlns="http://www.w3.org/2000/svg" xmlns:xlink="http://www.w3.org/1999/xlink" version="1.1"><rect x="0" y="0" width="900" height="600" fill="#0c7122"></rect><path d="M0 469L11.5 465.2C23 461.3 46 453.7 69 445.5C92 437.3 115 428.7 138.2 435.8C161.3 443 184.7 466 207.8 473.2C231 480.3 254 471.7 277 464.5C300 457.3 323 451.7 346 459.3C369 467 392 488 415.2 503.3C438.3 518.7 461.7 528.3 484.8 523.7C508 519 531 500 554 483.3C577 466.7 600 452.3 623 453.2C646 454 669 470 692.2 470.3C715.3 470.7 738.7 455.3 761.8 458.7C785 462 808 484 831 485.2C854 486.3 877 466.7 888.5 456.8L900 447L900 601L888.5 601C877 601 854 601 831 601C808 601 785 601 761.8 601C738.7 601 715.3 601 692.2 601C669 601 646 601 623 601C600 601 577 601 554 601C531 601 508 601 484.8 601C461.7 601 438.3 601 415.2 601C392 601 369 601 346 601C323 601 300 601 277 601C254 601 231 601 207.8 601C184.7 601 161.3 601 138.2 601C115 601 92 601 69 601C46 601 23 601 11.5 601L0 601Z" fill="#79b06d" stroke-linecap="round" stroke-linejoin="miter"></path></svg>